<?xml version="1.0" encoding="UTF-8" standalone="no"?>
<svg
   xmlns:dc="http://purl.org/dc/elements/1.1/"
   xmlns:cc="http://creativecommons.org/ns#"
   xmlns:rdf="http://www.w3.org/1999/02/22-rdf-syntax-ns#"
   xmlns:svg="http://www.w3.org/2000/svg"
   xmlns="http://www.w3.org/2000/svg"
   xmlns:sodipodi="http://sodipodi.sourceforge.net/DTD/sodipodi-0.dtd"
   xmlns:inkscape="http://www.inkscape.org/namespaces/inkscape"
   width="32.0px"
   height="32.0px"
   viewBox="0 0 32.0 32.0"
   version="1.1"
   id="SVGRoot"
   sodipodi:docname="satellite.svg"
   inkscape:version="1.0.1 (3bc2e813f5, 2020-09-07)">
  <defs
     id="defs833" />
  <sodipodi:namedview
     id="base"
     pagecolor="#ffffff"
     bordercolor="#666666"
     borderopacity="1.0"
     inkscape:pageopacity="0.0"
     inkscape:pageshadow="2"
     inkscape:zoom="15.839192"
     inkscape:cx="18.351139"
     inkscape:cy="20.814932"
     inkscape:document-units="px"
     inkscape:current-layer="layer1"
     inkscape:document-rotation="0"
     showgrid="true"
     inkscape:window-width="1280"
     inkscape:window-height="961"
     inkscape:window-x="1672"
     inkscape:window-y="-8"
     inkscape:window-maximized="1"
     inkscape:pagecheckerboard="false" />
  <metadata
     id="metadata836">
    <rdf:RDF>
      <cc:Work
         rdf:about="">
        <dc:format>image/svg+xml</dc:format>
        <dc:type
           rdf:resource="http://purl.org/dc/dcmitype/StillImage" />
        <dc:title />
      </cc:Work>
    </rdf:RDF>
  </metadata>
  <g
     inkscape:label="Layer 1"
     inkscape:groupmode="layer"
     id="layer1">
    <path
       id="rect911"
       style="fill:#ffffff;stroke:#ffffff;stroke-width:1;stroke-linecap:round;stroke-linejoin:round;stroke-miterlimit:4;stroke-dasharray:none"
       d="m 19.538577,10.447793 c -0.685589,-0.6855882 -1.786186,-0.6886565 -2.467962,-0.0069 l -3.112385,3.112418 -1.243684,-1.243684 1.927223,-1.927223 -8.6762628,-8.676263 -4.3144529,4.314453 8.6762627,8.676262 1.754609,-1.754609 1.243685,1.243685 -2.42193,2.42193 c -0.277373,0.277372 -0.435381,0.625555 -0.486202,0.985465 A 4.8264658,4.7996268 45 0 0 5.43656,18.721494 4.8264658,4.7996268 45 0 0 5.3235982,18.838091 l 2.131263,2.131264 -0.3609271,3.0344 2.7498741,-0.645453 2.3012638,2.301263 a 4.8264658,4.7996268 45 0 0 0.116597,-0.112961 4.8264658,4.7996268 45 0 0 1.159666,-4.888932 c 0.379522,-0.0413 0.748299,-0.200785 1.039841,-0.492328 l 2.421931,-2.42193 1.156895,1.156895 -1.754609,1.75461 8.677134,8.677133 4.314452,-4.314453 -8.677157,-8.677158 -1.927223,1.927224 -1.156895,-1.156895 3.112385,-3.112386 c 0.681774,-0.681774 0.678707,-1.782372 -0.0069,-2.46796 z" />
  </g>
</svg>
