<?xml version="1.0" encoding="UTF-8" standalone="no"?>
<svg
   xmlns:dc="http://purl.org/dc/elements/1.1/"
   xmlns:cc="http://creativecommons.org/ns#"
   xmlns:rdf="http://www.w3.org/1999/02/22-rdf-syntax-ns#"
   xmlns:svg="http://www.w3.org/2000/svg"
   xmlns="http://www.w3.org/2000/svg"
   xmlns:sodipodi="http://sodipodi.sourceforge.net/DTD/sodipodi-0.dtd"
   xmlns:inkscape="http://www.inkscape.org/namespaces/inkscape"
   width="32.0px"
   height="32.0px"
   viewBox="0 0 32.0 32.0"
   version="1.1"
   id="SVGRoot"
   sodipodi:docname="location.svg"
   inkscape:version="1.0.1 (3bc2e813f5, 2020-09-07)">
  <defs
     id="defs833" />
  <sodipodi:namedview
     id="base"
     pagecolor="#ffffff"
     bordercolor="#666666"
     borderopacity="1.0"
     inkscape:pageopacity="0.0"
     inkscape:pageshadow="2"
     inkscape:zoom="15.839192"
     inkscape:cx="15.198708"
     inkscape:cy="13.029931"
     inkscape:document-units="px"
     inkscape:current-layer="layer1"
     inkscape:document-rotation="0"
     showgrid="true"
     inkscape:window-width="1680"
     inkscape:window-height="987"
     inkscape:window-x="-8"
     inkscape:window-y="-8"
     inkscape:window-maximized="1"
     inkscape:pagecheckerboard="false" />
  <metadata
     id="metadata836">
    <rdf:RDF>
      <cc:Work
         rdf:about="">
        <dc:format>image/svg+xml</dc:format>
        <dc:type
           rdf:resource="http://purl.org/dc/dcmitype/StillImage" />
        <dc:title />
      </cc:Work>
    </rdf:RDF>
  </metadata>
  <g
     inkscape:label="Layer 1"
     inkscape:groupmode="layer"
     id="layer1">
    <path
       id="path835"
       style="fill:#ffffff;stroke:#ffffff;stroke-width:1px;stroke-linecap:butt;stroke-linejoin:miter;stroke-opacity:1"
       d="M 15.505661,1.4254439 C 11.895473,1.4391339 8.3099017,4.7139981 8.3474582,11.2106 8.3386882,14.944964 14.115199,24.092903 15.388473,24.722319 16.633207,23.993578 22.930955,14.70561 22.810348,11.2106 22.749259,4.6592376 19.115849,1.4117538 15.505661,1.4254439 Z m -0.02734,2.9316406 a 3.8196392,3.8196392 0 0 1 0.08399,0 3.8196392,3.8196392 0 0 1 3.820303,3.8183594 3.8196392,3.8196392 0 0 1 -3.820312,3.8203121 3.8196392,3.8196392 0 0 1 -3.81836,-3.8203121 3.8196392,3.8196392 0 0 1 3.734375,-3.8183594 z" />
    <path
       id="path841"
       style="fill:none;stroke:#ffffff;stroke-width:2;stroke-linecap:round;stroke-linejoin:round;stroke-miterlimit:4;stroke-dasharray:none"
       d="m 8.4602535,18.9375 c -2.5977547,1.109333 -4.1038088,2.767354 -4.1035156,4.517578 1.064e-4,3.225008 5.0165492,5.83947 11.2050781,5.839844 6.189292,1.88e-4 11.206925,-2.614438 11.207031,-5.839844 10e-4,-1.659823 -1.353364,-3.241453 -3.724609,-4.349609"
       sodipodi:nodetypes="ccccc" />
  </g>
</svg>
