<?xml version="1.0" encoding="UTF-8" standalone="no"?>
<svg
   xmlns:dc="http://purl.org/dc/elements/1.1/"
   xmlns:cc="http://creativecommons.org/ns#"
   xmlns:rdf="http://www.w3.org/1999/02/22-rdf-syntax-ns#"
   xmlns:svg="http://www.w3.org/2000/svg"
   xmlns="http://www.w3.org/2000/svg"
   xmlns:sodipodi="http://sodipodi.sourceforge.net/DTD/sodipodi-0.dtd"
   xmlns:inkscape="http://www.inkscape.org/namespaces/inkscape"
   width="32.0px"
   height="32.0px"
   viewBox="0 0 32.0 32.0"
   version="1.1"
   id="SVGRoot"
   sodipodi:docname="planet.svg"
   inkscape:version="1.0.1 (3bc2e813f5, 2020-09-07)">
  <defs
     id="defs833" />
  <sodipodi:namedview
     id="base"
     pagecolor="#ffffff"
     bordercolor="#666666"
     borderopacity="1.0"
     inkscape:pageopacity="0.0"
     inkscape:pageshadow="2"
     inkscape:zoom="15.839192"
     inkscape:cx="19.687152"
     inkscape:cy="16.686553"
     inkscape:document-units="px"
     inkscape:current-layer="layer1"
     inkscape:document-rotation="0"
     showgrid="true"
     inkscape:window-width="1280"
     inkscape:window-height="961"
     inkscape:window-x="1672"
     inkscape:window-y="-8"
     inkscape:window-maximized="1"
     inkscape:pagecheckerboard="false" />
  <metadata
     id="metadata836">
    <rdf:RDF>
      <cc:Work
         rdf:about="">
        <dc:format>image/svg+xml</dc:format>
        <dc:type
           rdf:resource="http://purl.org/dc/dcmitype/StillImage" />
        <dc:title />
      </cc:Work>
    </rdf:RDF>
  </metadata>
  <g
     inkscape:label="Layer 1"
     inkscape:groupmode="layer"
     id="layer1">
    <circle
       style="fill:#ffffff;stroke:#ffffff;stroke-width:2;stroke-linecap:round;stroke-linejoin:round"
       id="path840"
       cx="16.099306"
       cy="16.099306"
       r="13.952732" />
    <path
       id="path842"
       style="fill:#ffffff;stroke:#ffffff;stroke-width:0;stroke-linecap:round;stroke-linejoin:round;stroke-miterlimit:4;stroke-dasharray:none"
       d="m 15.96875,5.5566406 a 10.669736,10.669736 0 0 0 -1.697266,0.1367188 h 3.398438 a 10.669736,10.669736 0 0 0 -1.697266,-0.1367188 10.669736,10.669736 0 0 0 -0.0039,0 z M 9.9023438,7.4550781 A 10.669736,10.669736 0 0 0 8.1914062,8.9277344 H 23.753906 A 10.669736,10.669736 0 0 0 22.044922,7.4550781 Z M 5.9921875,12.455078 a 10.669736,10.669736 0 0 0 -0.6894531,3.769531 10.669736,10.669736 0 0 0 0.066406,1.185547 H 26.576172 a 10.669736,10.669736 0 0 0 0.06641,-1.185547 10.669736,10.669736 0 0 0 -0.689453,-3.769531 z M 5.4726562,18.125 a 10.669736,10.669736 0 0 0 1.5039063,3.839844 H 24.96875 A 10.669736,10.669736 0 0 0 26.472656,18.125 Z m 1.9707032,4.509766 A 10.669736,10.669736 0 0 0 8.5,23.839844 h 14.947266 a 10.669736,10.669736 0 0 0 1.05664,-1.205078 z m 4.4238286,3.4375 a 10.669736,10.669736 0 0 0 4.105468,0.822265 10.669736,10.669736 0 0 0 4.107422,-0.822265 z" />
  </g>
</svg>
