<?xml version="1.0" encoding="UTF-8" standalone="no"?>
<svg
   xmlns:dc="http://purl.org/dc/elements/1.1/"
   xmlns:cc="http://creativecommons.org/ns#"
   xmlns:rdf="http://www.w3.org/1999/02/22-rdf-syntax-ns#"
   xmlns:svg="http://www.w3.org/2000/svg"
   xmlns="http://www.w3.org/2000/svg"
   xmlns:sodipodi="http://sodipodi.sourceforge.net/DTD/sodipodi-0.dtd"
   xmlns:inkscape="http://www.inkscape.org/namespaces/inkscape"
   width="32.0px"
   height="32.0px"
   viewBox="0 0 32.0 32.0"
   version="1.1"
   id="SVGRoot"
   sodipodi:docname="unknown.svg"
   inkscape:version="1.0.1 (3bc2e813f5, 2020-09-07)">
  <defs
     id="defs833" />
  <sodipodi:namedview
     id="base"
     pagecolor="#ffffff"
     bordercolor="#666666"
     borderopacity="1.0"
     inkscape:pageopacity="0.0"
     inkscape:pageshadow="2"
     inkscape:zoom="15.839192"
     inkscape:cx="15.267735"
     inkscape:cy="16.234229"
     inkscape:document-units="px"
     inkscape:current-layer="layer1"
     inkscape:document-rotation="0"
     showgrid="true"
     inkscape:window-width="1680"
     inkscape:window-height="987"
     inkscape:window-x="-8"
     inkscape:window-y="-8"
     inkscape:window-maximized="1"
     inkscape:pagecheckerboard="false" />
  <metadata
     id="metadata836">
    <rdf:RDF>
      <cc:Work
         rdf:about="">
        <dc:format>image/svg+xml</dc:format>
        <dc:type
           rdf:resource="http://purl.org/dc/dcmitype/StillImage" />
        <dc:title />
      </cc:Work>
    </rdf:RDF>
  </metadata>
  <g
     inkscape:label="Layer 1"
     inkscape:groupmode="layer"
     id="layer1">
    <path
       sodipodi:type="star"
       style="fill:none;stroke:#ffffff;stroke-width:2;stroke-linecap:round;stroke-linejoin:round;stroke-miterlimit:4;stroke-dasharray:none"
       id="path840"
       sodipodi:sides="4"
       sodipodi:cx="16.036171"
       sodipodi:cy="16.099304"
       sodipodi:r1="14.458259"
       sodipodi:r2="10.223533"
       sodipodi:arg1="1.5707963"
       sodipodi:arg2="2.3561945"
       inkscape:flatsided="true"
       inkscape:rounded="0"
       inkscape:randomized="0"
       d="M 16.036171,30.557563 1.5779123,16.099305 16.036171,1.6410456 30.49443,16.099304 Z" />
    <g
       aria-label="?"
       id="text844"
       style="font-style:normal;font-weight:normal;font-size:25.4203px;line-height:1.25;font-family:sans-serif;fill:#ffffff;fill-opacity:1;stroke:#ffffff;stroke-width:1.30038"
       transform="matrix(0.76386536,0,0,0.77417692,3.69723,3.1597384)">
      <path
         d="m 14.675386,23.275782 h 2.519688 v 3.152713 H 14.675386 Z M 17.1206,21.451181 h -2.37074 v -1.911487 q 0,-1.253638 0.347543,-2.060435 0.347543,-0.806797 1.464646,-1.874251 l 1.117103,-1.10469 q 0.707498,-0.65785 1.017805,-1.241226 0.322719,-0.583376 0.322719,-1.191576 0,-1.104691 -0.819209,-1.787365 -0.806797,-0.6826742 -2.147321,-0.6826742 -0.980568,0 -2.097671,0.4344292 -1.104691,0.434429 -2.308679,1.26605 V 8.9644517 q 1.166752,-0.7074985 2.358328,-1.0550417 1.203989,-0.3475432 2.482451,-0.3475432 2.283855,0 3.661616,1.2039888 1.390172,1.2039888 1.390172,3.1775374 0,0.943332 -0.446841,1.799777 -0.446841,0.844034 -1.563944,1.911488 L 18.4363,16.722112 q -0.583377,0.583376 -0.831622,0.918506 -0.235832,0.322719 -0.335131,0.633025 -0.07447,0.260658 -0.11171,0.633025 -0.03724,0.372368 -0.03724,1.017805 z"
         style="fill:#ffffff;stroke:#ffffff;stroke-width:1.30038"
         id="path846" />
    </g>
  </g>
</svg>
